# File created by Blade
# Date/Time:  Tue Jan 27 20:12:02 2015
# Frame Rate: 120.000 fps
#------------------------------------------------------
:FULLY-SPECIFIED
:DEGREES
3138
root 8.358048 32.502523 -4.242687 4.308184 -34.574798 -6.223405
Spine 4.263266 26.208396 -5.425441
Head 22.560238 0.011629 -0.573053
LeftShoulder -19.710462 3.965761 28.796296
LeftArm -30.336603 -47.927774 -53.464550
LeftForeArm -13.881859 -0.000000 95.345491
LeftHand 18.144172 -0.000000 3.211530
LeftHandThumb1 -26.253704 0.000000 33.147579
RightShoulder -15.525660 -21.147855 -23.486367
RightArm 9.065869 -41.091458 92.915825
RightForeArm -23.642448 -0.000000 102.331103
RightHand 19.186558 -0.000000 -0.145905
RightHandThumb1 -24.326973 -0.000000 -32.862282
LeftUpLeg 3.700935 13.519461 -4.905874
LeftLeg -2.218495 -0.000000 0.000000
LeftFoot -23.772494 31.770799 -21.786641
LeftToeBase 20.640830 -0.000000 -0.000000
RightUpLeg 22.868602 -72.458657 -36.138998
RightLeg 85.464535 -0.000000 -0.000000
RightFoot 28.546020 -24.894689 22.739697
RightToeBase 14.314787 -0.000000 -0.000000
3139
root 8.358331 32.502719 -4.243712 4.304851 -34.540914 -6.221300
Spine 4.257213 26.213705 -5.420338
Head 22.614019 0.006363 -0.599369
LeftShoulder -19.744441 3.980641 28.773700
LeftArm -30.325004 -48.013807 -53.532526
LeftForeArm -13.804830 -0.000000 95.449998
LeftHand 18.124669 -0.000000 3.344630
LeftHandThumb1 -26.253704 0.000000 33.147579
RightShoulder -15.529339 -21.176020 -23.492164
RightArm 9.078078 -41.098926 92.893180
RightForeArm -23.677647 -0.000000 102.355251
RightHand 19.216116 0.000000 -0.131071
RightHandThumb1 -24.326973 -0.000000 -32.862282
LeftUpLeg 3.690506 13.507122 -4.904885
LeftLeg -2.191007 -0.000000 0.000000
LeftFoot -23.734570 31.795764 -21.680156
LeftToeBase 20.660398 -0.000000 -0.000000
RightUpLeg 22.797469 -72.433082 -36.052501
RightLeg 85.292724 -0.000000 -0.000000
RightFoot 28.584770 -24.860368 22.644244
RightToeBase 14.260682 -0.000000 -0.000000
3140
root 8.356807 32.503225 -4.244814 4.297461 -34.502177 -6.222784
Spine 4.251630 26.237908 -5.422073
Head 22.660259 -0.032895 -0.603231
LeftShoulder -19.751485 3.958576 28.775633
LeftArm -30.367937 -48.052497 -53.554115
LeftForeArm -13.810148 -0.000000 95.552445
LeftHand 18.163207 -0.000000 3.155246
LeftHandThumb1 -26.253704 0.000000 33.147579
RightShoulder -15.538588 -21.211969 -23.476046
RightArm 9.074953 -41.085892 92.875794
RightForeArm -23.703961 0.000000 102.387429
RightHand 19.205987 -0.000000 -0.123014
RightHandThumb1 -24.326973 -0.000000 -32.862282
LeftUpLeg 3.686831 13.482147 -4.894314
LeftLeg -2.168785 -0.000000 0.000000
LeftFoot -23.718338 31.781684 -21.646947
LeftToeBase 20.622349 -0.000000 -0.000000
RightUpLeg 22.745767 -72.400315 -35.963675
RightLeg 85.123170 -0.000000 -0.000000
RightFoot 28.506629 -24.886498 22.635220
RightToeBase 14.358341 -0.000000 -0.000000
3141
root 8.355588 32.503771 -4.246064 4.290837 -34.448137 -6.220505
Spine 4.244295 26.244025 -5.421745
Head 22.707942 -0.055972 -0.614242
LeftShoulder -19.759915 3.890832 28.811948
LeftArm -30.442889 -48.008100 -53.558879
LeftForeArm -13.865214 -0.000000 95.630152
LeftHand 18.045296 0.000000 3.001975
LeftHandThumb1 -26.253704 0.000000 33.147579
RightShoulder -15.553391 -21.235962 -23.478216
RightArm 9.060175 -41.078522 92.881979
RightForeArm -23.713401 -0.000000 102.387991
RightHand 19.208890 0.000000 -0.150559
RightHandThumb1 -24.326973 -0.000000 -32.862282
LeftUpLeg 3.679247 13.467756 -4.885723
LeftLeg -2.150352 -0.000000 0.000000
LeftFoot -23.677645 31.764189 -21.583287
LeftToeBase 20.642546 -0.000000 -0.000000
RightUpLeg 22.701930 -72.362743 -35.896176
RightLeg 84.968131 -0.000000 -0.000000
RightFoot 28.488869 -24.889864 22.602372
RightToeBase 14.537444 -0.000000 -0.000000
3142
root 8.355860 32.504366 -4.247188 4.290202 -34.364304 -6.219984
Spine 4.241086 26.210059 -5.406417
Head 22.732174 -0.064204 -0.659803
LeftShoulder -19.770306 3.941221 28.811975
LeftArm -30.353206 -47.989997 -53.688991
LeftForeArm -13.911783 0.000000 95.670328
LeftHand 18.063619 0.000000 3.019436
LeftHandThumb1 -26.253704 0.000000 33.147579
RightShoulder -15.559787 -21.254048 -23.493397
RightArm 9.037047 -41.069019 92.895073
RightForeArm -23.686606 -0.000000 102.393777
RightHand 19.188211 -0.000000 -0.146556
RightHandThumb1 -24.326973 -0.000000 -32.862282
LeftUpLeg 3.662821 13.413531 -4.879107
LeftLeg -2.129975 -0.000000 0.000000
LeftFoot -23.657079 31.732262 -21.553119
LeftToeBase 20.721261 -0.000000 -0.000000
RightUpLeg 22.691987 -72.338620 -35.862493
RightLeg 84.823783 -0.000000 -0.000000
RightFoot 28.446716 -24.931456 22.646764
RightToeBase 14.693178 -0.000000 -0.000000
3143
root 8.354415 32.504966 -4.247354 4.283079 -34.296987 -6.215241
Spine 4.236947 26.187679 -5.402276
Head 22.751428 -0.046662 -0.697389
LeftShoulder -19.757170 3.957493 28.822289
LeftArm -30.339268 -47.922005 -53.724930
LeftForeArm -13.954083 -0.000000 95.700944
LeftHand 18.068301 -0.000000 3.082880
LeftHandThumb1 -26.253704 0.000000 33.147579
RightShoulder -15.580193 -21.277761 -23.507624
RightArm 9.039924 -41.076519 92.904093
RightForeArm -23.662355 0.000000 102.370888
RightHand 19.214099 -0.000000 -0.196555
RightHandThumb1 -24.326973 -0.000000 -32.862282
LeftUpLeg 3.663240 13.399120 -4.874521
LeftLeg -2.117968 -0.000000 0.000000
LeftFoot -23.645526 31.671956 -21.536731
LeftToeBase 20.631809 -0.000000 -0.000000
RightUpLeg 22.658270 -72.294157 -35.800530
RightLeg 84.686873 -0.000000 -0.000000
RightFoot 28.435546 -24.890426 22.586723
RightToeBase 14.592577 -0.000000 -0.000000
3144
root 8.352110 32.506138 -4.248590 4.281196 -34.211854 -6.207418
Spine 4.233857 26.153940 -5.399760
Head 22.738982 -0.027509 -0.756064
LeftShoulder -19.737421 3.982784 28.824685
LeftArm -30.283835 -47.841046 -53.761679
LeftForeArm -14.011641 -0.000000 95.699351
LeftHand 18.046979 -0.000000 3.186170
LeftHandThumb1 -26.253704 0.000000 33.147579
RightShoulder -15.622932 -21.329493 -23.503489
RightArm 9.084270 -41.086264 92.885650
RightForeArm -23.645283 -0.000000 102.364687
RightHand 19.189009 -0.000000 -0.177928
RightHandThumb1 -24.326973 -0.000000 -32.862282
LeftUpLeg 3.651874 13.391966 -4.860805
LeftLeg -2.126670 -0.000000 0.000000
LeftFoot -23.694298 31.615830 -21.652362
LeftToeBase 20.825885 -0.000000 -0.000000
RightUpLeg 22.594526 -72.246295 -35.703825
RightLeg 84.544226 -0.000000 -0.000000
RightFoot 28.485050 -24.875627 22.565071
RightToeBase 14.267228 -0.000000 -0.000000
3145
root 8.350534 32.507172 -4.249148 4.279992 -34.127759 -6.199879
Spine 4.230506 26.120427 -5.395478
Head 22.720815 -0.007735 -0.815447
LeftShoulder -19.730882 4.010650 28.819294
LeftArm -30.195382 -47.747344 -53.798966
LeftForeArm -14.058315 -0.000000 95.669493
LeftHand 18.052849 0.000000 3.250612
LeftHandThumb1 -26.253704 0.000000 33.147579
RightShoulder -15.651071 -21.336047 -23.510852
RightArm 9.060089 -41.080011 92.911101
RightForeArm -23.638394 -0.000000 102.354746
RightHand 19.205933 -0.000000 -0.190650
RightHandThumb1 -24.326973 -0.000000 -32.862282
LeftUpLeg 3.646384 13.369335 -4.859037
LeftLeg -2.121900 -0.000000 0.000000
LeftFoot -23.529781 31.579457 -21.456993
LeftToeBase 20.607628 -0.000000 -0.000000
RightUpLeg 22.479584 -72.173277 -35.568679
RightLeg 84.434806 -0.000000 -0.000000
RightFoot 28.442825 -24.867080 22.595714
RightToeBase 14.773732 -0.000000 -0.000000
3146
root 8.351159 32.507974 -4.251068 4.291086 -33.999762 -6.192277
Spine 4.229990 26.024152 -5.378900
Head 22.676650 0.038221 -0.893408
LeftShoulder -19.735995 4.071950 28.800896
LeftArm -30.054884 -47.725055 -53.878643
LeftForeArm -14.066921 0.000000 95.606507
LeftHand 18.051825 0.000000 3.221862
LeftHandThumb1 -26.253704 0.000000 33.147579
RightShoulder -15.664824 -21.353360 -23.525678
RightArm 9.076330 -41.079802 92.902698
RightForeArm -23.612066 -0.000000 102.351949
RightHand 19.222224 -0.000000 -0.216844
RightHandThumb1 -24.326973 -0.000000 -32.862282
LeftUpLeg 3.607101 13.286667 -4.860509
LeftLeg -2.103435 -0.000000 0.000000
LeftFoot -23.492366 31.551090 -21.421622
LeftToeBase 20.643438 -0.000000 -0.000000
RightUpLeg 22.420234 -72.131273 -35.478235
RightLeg 84.327054 -0.000000 -0.000000
RightFoot 28.443486 -24.849457 22.607509
RightToeBase 14.770972 -0.000000 -0.000000
3147
root 8.350885 32.508394 -4.252826 4.307907 -33.900720 -6.168509
Spine 4.209910 25.943807 -5.396339
Head 22.602583 0.105207 -0.957356
LeftShoulder -19.714838 4.040100 28.753886
LeftArm -30.104242 -47.602521 -53.710961
LeftForeArm -14.259520 -0.000000 95.567863
LeftHand 18.214809 -0.000000 2.906512
LeftHandThumb1 -26.253704 0.000000 33.147579
RightShoulder -15.671138 -21.360135 -23.546732
RightArm 9.072543 -41.079463 92.928280
RightForeArm -23.598677 -0.000000 102.358499
RightHand 19.198383 -0.000000 -0.213500
RightHandThumb1 -24.326973 -0.000000 -32.862282
LeftUpLeg 3.581550 13.226609 -4.867725
LeftLeg -2.129787 -0.000000 0.000000
LeftFoot -23.459113 31.472911 -21.450080
LeftToeBase 20.620774 -0.000000 -0.000000
RightUpLeg 22.225904 -72.059610 -35.270858
RightLeg 84.236238 -0.000000 -0.000000
RightFoot 28.376470 -24.833557 22.668313
RightToeBase 14.804578 -0.000000 -0.000000
3148
root 8.351330 32.509396 -4.256134 4.345692 -33.795822 -6.155577
Spine 4.170632 25.876549 -5.415282
Head 22.529346 0.159606 -0.995700
LeftShoulder -19.715377 4.013187 28.749356
LeftArm -30.013313 -47.514891 -53.693622
LeftForeArm -14.230729 -0.000000 95.464037
LeftHand 18.147029 0.000000 3.302388
LeftHandThumb1 -26.253704 0.000000 33.147579
RightShoulder -15.670646 -21.337123 -23.567146
RightArm 9.009464 -41.056885 92.977618
RightForeArm -23.557843 -0.000000 102.369947
RightHand 19.203457 0.000000 -0.248710
RightHandThumb1 -24.326973 -0.000000 -32.862282
LeftUpLeg 3.522367 13.199857 -4.880547
LeftLeg -2.125854 -0.000000 0.000000
LeftFoot -23.416535 31.419313 -21.397752
LeftToeBase 20.626391 -0.000000 -0.000000
RightUpLeg 21.985808 -71.991907 -35.007838
RightLeg 84.150606 -0.000000 -0.000000
RightFoot 28.395686 -24.811250 22.531663
RightToeBase 14.797933 -0.000000 -0.000000
3149
root 8.344096 32.511676 -4.260057 4.377924 -33.699386 -6.161885
Spine 4.131834 25.827593 -5.448188
Head 22.452916 0.167807 -0.978227
LeftShoulder -19.718100 3.989907 28.792306
LeftArm -29.900933 -47.460406 -53.712605
LeftForeArm -14.232965 0.000000 95.360317
LeftHand 18.086532 -0.000000 3.391695
LeftHandThumb1 -26.253704 0.000000 33.147579
RightShoulder -15.651786 -21.353245 -23.563907
RightArm 8.995904 -41.027539 93.010097
RightForeArm -23.553842 0.000000 102.369980
RightHand 19.241435 0.000000 -0.250666
RightHandThumb1 -24.326973 -0.000000 -32.862282
LeftUpLeg 3.499869 13.267370 -4.849235
LeftLeg -2.161488 -0.000000 0.000000
LeftFoot -23.316430 31.295639 -21.343453
LeftToeBase 20.571542 -0.000000 -0.000000
RightUpLeg 21.741288 -71.859051 -34.706960
RightLeg 84.082160 -0.000000 -0.000000
RightFoot 27.931043 -25.082518 23.142625
RightToeBase 15.860812 -0.000000 -0.000000
3150
root 8.338889 32.513998 -4.263273 4.405334 -33.578545 -6.167166
Spine 4.109471 25.765095 -5.461404
Head 22.371764 0.185122 -0.967613
LeftShoulder -19.695478 3.976882 28.821469
LeftArm -29.795421 -47.447525 -53.749199
LeftForeArm -14.222759 -0.000000 95.262423
LeftHand 18.115828 -0.000000 3.372268
LeftHandThumb1 -26.253704 0.000000 33.147579
RightShoulder -15.647375 -21.356883 -23.573288
RightArm 8.975966 -41.002281 93.040047
RightForeArm -23.562506 -0.000000 102.369020
RightHand 19.254030 0.000000 -0.226564
RightHandThumb1 -24.326973 -0.000000 -32.862282
LeftUpLeg 3.477799 13.314270 -4.821462
LeftLeg -2.197270 -0.000000 0.000000
LeftFoot -23.324799 31.164840 -21.419063
LeftToeBase 20.819009 -0.000000 -0.000000
RightUpLeg 21.687435 -71.789342 -34.583922
RightLeg 83.963011 -0.000000 -0.000000
RightFoot 28.179213 -24.973156 22.626998
RightToeBase 15.218744 -0.000000 -0.000000
